<svg width="103" height="100" viewBox="0 0 103 100" fill="none" xmlns="http://www.w3.org/2000/svg">
<ellipse cx="29.4762" cy="18.8902" rx="7.28279" ry="7.28277" fill="#F2F2F2"/>
<ellipse cx="22.1939" cy="31.7739" rx="12.3247" ry="12.3247" fill="#E6E6E6"/>
<ellipse cx="50.2042" cy="26.1729" rx="17.9269" ry="17.9268" fill="#E6E6E6"/>
<path d="M37.8801 29.5273L66.4407 29.5296C71.2214 29.5299 74.9345 33.6957 74.3875 38.445L68.2294 91.9095C67.7643 95.947 64.346 98.9941 60.2819 98.9941H17.1599C13.0958 98.9941 9.67756 95.947 9.21247 91.9097L3.05357 38.4451C2.50647 33.6957 6.21962 29.5299 11.0004 29.5295L37.8801 29.5273Z" fill="#E25932"/>
<path d="M33.0537 35.1348L3.14677 67.6271" stroke="#E87D5E" stroke-width="6" stroke-linecap="round"/>
<ellipse cx="15.4713" cy="6.00448" rx="5.60215" ry="5.60213" fill="#F2F2F2"/>
<rect x="75.9736" y="12.7266" width="8.96344" height="54.9009" rx="4" fill="#E25932"/>
<path d="M91.2161 54.1816C94.1281 54.1816 96.6197 56.2725 97.1251 59.1403L102.909 91.9577C103.556 95.6313 100.73 98.999 96.9997 98.999H63.9108C60.1806 98.999 57.3545 95.6313 58.0019 91.9577L63.7855 59.1403C64.2909 56.2725 66.7825 54.1816 69.6944 54.1816H91.2161Z" fill="#E87D5E"/>
<path d="M86.498 84.5566C86.498 84.0044 86.0503 83.5566 85.498 83.5566C84.9458 83.5566 84.498 84.0044 84.498 84.5566H86.498ZM84.498 98.0018V99.0018H86.498V98.0018H84.498ZM85.498 84.5566H84.498V98.0018H85.498H86.498V84.5566H85.498Z" fill="#E6E6E6"/>
<path d="M76.4141 89.0352C76.4141 88.4829 75.9663 88.0352 75.4141 88.0352C74.8618 88.0352 74.4141 88.4829 74.4141 89.0352L76.4141 89.0352ZM74.4141 97.9986L74.4141 98.9986L76.4141 98.9986L76.4141 97.9986L74.4141 97.9986ZM75.4141 89.0352L74.4141 89.0352L74.4141 97.9986L75.4141 97.9986L76.4141 97.9986L76.4141 89.0352L75.4141 89.0352Z" fill="#E6E6E6"/>
</svg>
