<svg width="16" height="16" viewBox="0 0 16 16" fill="none" xmlns="http://www.w3.org/2000/svg">
<circle cx="8" cy="8" r="8" fill="#C7966B"/>
<circle cx="8.00057" cy="7.99862" r="5.64706" fill="#EAD8C8"/>
<path d="M7.95476 11.0871C6.4652 11.0871 5.40185 10.2566 5.38867 9.08343H7.07597C7.08915 9.46131 7.45385 9.73374 7.96355 9.73374C8.46886 9.73374 8.81599 9.44813 8.81599 9.03949C8.81599 8.63524 8.41613 8.34963 7.83173 8.34524H7.19021V7.18523H7.83173C8.36341 7.18523 8.7325 6.89962 8.72811 6.49976C8.7325 6.11309 8.42053 5.84066 7.97234 5.84066C7.48461 5.84066 7.12869 6.12188 7.11991 6.51734H5.52049C5.52489 5.36172 6.54429 4.54883 7.97234 4.54883C9.36963 4.54883 10.3495 5.33096 10.3451 6.39431C10.3495 7.10613 9.80464 7.59387 9.05326 7.67735V7.73008C10.0639 7.84432 10.5868 8.39797 10.5824 9.1801C10.5868 10.2962 9.49706 11.0871 7.95476 11.0871Z" fill="#C7966B"/>
</svg>
