<svg width="100" height="100" viewBox="0 0 100 100" fill="none" xmlns="http://www.w3.org/2000/svg">
<circle cx="66.5212" cy="62.4783" r="33.4783" fill="#567EC2"/>
<path d="M95.6153 88.5582C95.8873 89.3464 95.1319 90.1017 94.3437 89.8297L88.0395 87.654C87.3411 87.413 87.1362 86.524 87.6586 86.0016L91.7871 81.873C92.3095 81.3506 93.1985 81.5555 93.4395 82.2539L95.6153 88.5582Z" fill="#567EC2"/>
<path d="M49.5645 52.4766H84.3471" stroke="#E6E6E6" stroke-width="3" stroke-linecap="round"/>
<path d="M49.5645 62.9121H84.3471" stroke="#E6E6E6" stroke-width="3" stroke-linecap="round"/>
<path d="M49.5645 73.3477H76.521" stroke="#E6E6E6" stroke-width="3" stroke-linecap="round"/>
<circle cx="26.5214" cy="28.913" r="23.913" fill="#7C9BD0"/>
<path d="M4.03706 44.3166C3.19998 44.3809 2.66102 43.4474 3.13527 42.7546L5.48886 39.3166C5.90466 38.7092 6.81202 38.744 7.18006 39.3814L8.98071 42.5003C9.34875 43.1377 8.92522 43.9409 8.1913 43.9973L4.03706 44.3166Z" fill="#7C9BD0"/>
<path d="M14.7822 21.5215H39.1301" stroke="#E6E6E6" stroke-width="2" stroke-linecap="round"/>
<path d="M14.7822 29.3477H39.1301" stroke="#E6E6E6" stroke-width="2" stroke-linecap="round"/>
<path d="M14.7822 37.1738H39.1301" stroke="#E6E6E6" stroke-width="2" stroke-linecap="round"/>
</svg>
