<svg width="100" height="100" viewBox="0 0 100 100" fill="none" xmlns="http://www.w3.org/2000/svg">
<path d="M0 74.1026V30.8801C0 26.3997 0 24.1594 0.871948 22.4482C1.63893 20.9429 2.86278 19.719 4.36808 18.952C6.07937 18.0801 8.31958 18.0801 12.8 18.0801H39.4124C43.8928 18.0801 46.133 18.0801 47.8443 18.952C49.3496 19.719 50.5735 20.9429 51.3404 22.4482C52.2124 24.1594 52.2124 26.3997 52.2124 30.8801V74.4076C52.2124 80.1288 52.2124 82.9893 51.2466 84.7722C50.3049 86.5105 49.2299 87.4987 47.4187 88.291C45.561 89.1037 42.3039 88.8291 35.7897 88.2801H35.7896C28.9408 87.7028 22.4188 87.827 16.7263 88.2998C10.0041 88.8582 6.64306 89.1374 4.78747 88.3237C2.95927 87.5221 1.91464 86.5607 0.96444 84.8051C0 83.0232 0 80.0497 0 74.1026Z" fill="#9263CA"/>
<path d="M47.7881 74.1026V30.8801C47.7881 26.3997 47.7881 24.1594 48.66 22.4482C49.427 20.9429 50.6509 19.719 52.1562 18.952C53.8675 18.0801 56.1077 18.0801 60.5881 18.0801H87.2005C91.6809 18.0801 93.9211 18.0801 95.6324 18.952C97.1377 19.719 98.3615 20.9429 99.1285 22.4482C100 24.1594 100 26.3997 100 30.8801V74.4076C100 80.1288 100 82.9893 99.0346 84.7722C98.093 86.5105 97.018 87.4987 95.2068 88.291C93.3491 89.1037 90.092 88.8291 83.5778 88.2801H83.5777C76.7288 87.7028 70.2069 87.827 64.5144 88.2998C57.7922 88.8582 54.4311 89.1374 52.5756 88.3237C50.7474 87.5221 49.7027 86.5607 48.7525 84.8051C47.7881 83.0232 47.7881 80.0497 47.7881 74.1026Z" fill="#9263CA"/>
<path d="M53.2119 68.1375C53.2119 73.9427 53.2119 76.8452 52.2567 78.6203C51.3113 80.3772 50.2886 81.3262 48.466 82.1377C46.6245 82.9577 43.257 82.7054 36.5221 82.201C31.204 81.8026 26.1244 81.8773 21.5599 82.2178C14.6036 82.7368 11.1254 82.9963 9.28444 82.1761C7.44339 81.3559 6.4498 80.4337 5.4949 78.6588C4.54004 76.8839 4.54004 73.8586 4.54004 67.8081V21.9938C4.54004 18.7083 4.54004 17.0656 5.23343 15.5105C5.78908 14.2643 6.94266 12.892 8.07483 12.1304C9.48762 11.18 10.9083 10.9321 13.7496 10.4364C18.2626 9.64898 23.7499 9.00003 29.3184 9C39.9371 9 49.6717 11.3598 53.2121 12.5398C53.2123 12.5398 53.2122 12.54 53.2121 12.54C53.212 12.54 53.2119 12.5401 53.2119 12.5402V68.1375Z" fill="#AC89D7"/>
<path d="M95.46 68.1375C95.46 73.9426 95.46 76.8452 94.5048 78.6203C93.5593 80.3772 92.5367 81.3262 90.714 82.1377C88.8726 82.9576 85.5051 82.7054 78.7701 82.2009C73.452 81.8026 68.3723 81.8773 63.8078 82.2178C56.8516 82.7368 53.3735 82.9963 51.5325 82.1761C49.6915 81.3559 48.6978 80.4337 47.7429 78.6588C46.7881 76.8839 46.7881 73.8587 46.7881 67.8082V21.9939C46.7881 18.7084 46.7881 17.0656 47.4815 15.5105C48.0371 14.2642 49.1907 12.892 50.3229 12.1304C51.7357 11.18 53.1564 10.9321 55.9977 10.4364C60.5108 9.64894 65.998 9 71.5664 9C77.0161 9 82.2327 9.62155 86.4987 10.3862C89.194 10.8693 90.5417 11.1109 91.9466 12.0625C93.0555 12.8137 94.2274 14.2143 94.7711 15.4383C95.46 16.9891 95.46 18.5813 95.46 21.7658V68.1375Z" fill="#AC89D7"/>
<path d="M55.752 26.7387C61.2232 25.403 75.6087 23.5332 89.3803 26.7387" stroke="#E6E6E6" stroke-width="3" stroke-linecap="round"/>
<path d="M11.5049 26.7387C16.9762 25.403 31.3616 23.5332 45.1332 26.7387" stroke="#E6E6E6" stroke-width="3" stroke-linecap="round"/>
<path d="M55.752 40.8988C61.2232 39.5632 75.6087 37.6933 89.3803 40.8988" stroke="#E6E6E6" stroke-width="3" stroke-linecap="round"/>
<path d="M11.5049 40.8988C16.9762 39.5632 31.3616 37.6933 45.1332 40.8988" stroke="#E6E6E6" stroke-width="3" stroke-linecap="round"/>
<path d="M55.752 55.0572C61.2232 53.0538 75.6087 50.249 89.3803 55.0572" stroke="#E6E6E6" stroke-width="3" stroke-linecap="round"/>
<path d="M11.5049 55.0572C16.9762 53.0538 31.3616 50.249 45.1332 55.0572" stroke="#E6E6E6" stroke-width="3" stroke-linecap="round"/>
<path d="M55.752 68.3324C61.2232 66.9968 75.6087 65.1269 89.3803 68.3324" stroke="#E6E6E6" stroke-width="3" stroke-linecap="round"/>
<path d="M11.5049 68.3324C16.9762 66.9968 31.3616 65.1269 45.1332 68.3324" stroke="#E6E6E6" stroke-width="3" stroke-linecap="round"/>
</svg>
